<svg width="88" height="16" viewBox="0 0 88 16" fill="none" xmlns="http://www.w3.org/2000/svg">
<path d="M15.8225 4.54596C15.2437 1.51532 13.2927 0 8.34007 0C2.44413 0 0.321597 1.91644 0.321597 4.88022C0.321597 9.06964 3.4518 9.55989 6.11033 9.67131C9.06902 9.78273 12.1349 9.44847 12.1349 10.8301C12.1349 12.1226 10.4197 12.6128 8.49014 12.6128C6.7964 12.6128 4.52379 12.2117 4.30939 11.0084H0C0.192958 13.2591 1.07199 14.2841 2.89437 15.2423C3.94492 15.7549 5.35994 16 8.18999 16C13.9144 16 16.2299 13.7939 16.2299 10.2284C16.2299 7.1532 14.236 6.10585 9.94805 6.10585C8.59734 6.10585 7.88983 6.12813 7.18232 6.12813C5.72442 6.12813 4.48091 6.10585 4.48091 4.81337C4.48091 3.76602 5.83162 3.27577 8.36151 3.27577C10.0338 3.27577 11.3631 3.52089 11.9205 4.70195L15.8225 4.54596Z" fill="black"/>
<path d="M29.8681 9.78273C33.5557 9.78273 35.3781 8.02228 35.3781 5.14763C35.3781 2.27298 33.5986 0.490251 30.0182 0.490251H18.7194V15.532H22.6215V9.78273H29.8681ZM29.9967 4.03343C30.7257 4.03343 31.2402 4.3454 31.2402 5.01393C31.2402 5.77159 30.7257 6.10585 30.0182 6.10585H22.6215V4.03343H29.9967Z" fill="black"/>
<path d="M45.1625 0.490251H40.1671L33.6065 15.532H37.7872L38.9879 12.6574H46.1702L47.3279 15.532H51.8946L45.1625 0.490251ZM42.6326 4.05571L44.7337 9.31476H40.4887L42.6326 4.05571Z" fill="black"/>
<path d="M65.9326 9.73816C68.8913 9.4039 70.1348 7.64345 70.1348 5.14763C70.1348 2.27298 68.3553 0.490251 64.7749 0.490251H53.4761V15.532H57.3782V9.78273H60.98L64.6034 15.532H70.0276L65.9326 9.73816ZM64.7534 4.03343C65.4824 4.03343 65.9969 4.3454 65.9969 5.01393C65.9969 5.77159 65.4824 6.10585 64.7749 6.10585H57.3782V4.03343H64.7534Z" fill="black"/>
<path d="M87.6998 0.490251H72.4562V15.532H88V11.6992H76.3797V9.55989H86.2634V6.08357H76.3797V3.94429H87.6998V0.490251Z" fill="black"/>
</svg>
